SplineFontDB: 3.0
FontName: BukanMorse
FullName: BukanMorse
FamilyName: BukanMorse
Weight: Regular
Copyright: Copyright (c) 2015 Aydi Rainkarnichi, http://rainkarnichi.my.id @aydiriku. BukanMorse tapi Morse, based on International Morse Code.
Version: 001
ItalicAngle: 0
UnderlinePosition: 0
UnderlineWidth: 0
Ascent: 800
Descent: 200
InvalidEm: 0
LayerCount: 2
Layer: 0 0 "Back" 1
Layer: 1 0 "Fore" 0
HasVMetrics: 1
XUID: [1021 719 330763385 19224]
FSType: 0
OS2Version: 0
OS2_WeightWidthSlopeOnly: 0
OS2_UseTypoMetrics: 0
CreationTime: 1431685442
ModificationTime: 1432516984
PfmFamily: 81
TTFWeight: 400
TTFWidth: 5
LineGap: 92
VLineGap: 92
OS2TypoAscent: 0
OS2TypoAOffset: 1
OS2TypoDescent: 0
OS2TypoDOffset: 1
OS2TypoLinegap: 92
OS2WinAscent: 0
OS2WinAOffset: 1
OS2WinDescent: 0
OS2WinDOffset: 1
HheadAscent: 0
HheadAOffset: 1
HheadDescent: 0
HheadDOffset: 1
OS2Vendor: 'PfEd'
MarkAttachClasses: 1
DEI: 91125

StartChar: a
Encoding: 97 97 1
Width: 1200
VWidth: 90
Flags: W
LayerCount: 2
Back
Fore
SplineSet
400 200 m 1
 400 0 l 1
 533.33333 0 666.66667 0 800 0 c 1
 800 200 l 1
 666.66667 200 533.33333 200 400 200 c 1
0 200 m 1
 0 0 l 1
 200 0 l 1
 200 200 l 1
 0 200 l 1
EndSplineSet
Validated: 9
EndChar

StartChar: b
Encoding: 98 98 2
Width: 2000
VWidth: 90
Flags: W
LayerCount: 2
Back
Fore
SplineSet
1400 200 m 1
 1400 0 l 1
 1600 0 l 1
 1600 200 l 1
 1400 200 l 1
1000 200 m 1
 1000 0 l 1
 1200 0 l 1
 1200 200 l 1
 1000 200 l 1
600 200 m 1
 600 0 l 1
 800 0 l 1
 800 200 l 1
 600 200 l 1
0 200 m 1
 0 0 l 1
 133.33333 0 266.66667 0 400 0 c 1
 400 200 l 1
 266.66667 200 133.33333 200 0 200 c 1
EndSplineSet
Validated: 9
EndChar

StartChar: c
Encoding: 99 99 3
Width: 2200
VWidth: 90
Flags: W
LayerCount: 2
Back
Fore
SplineSet
0 200 m 1
 0 0 l 1
 133.33333 0 266.66667 0 400 0 c 1
 400 200 l 1
 266.66667 200 133.33333 200 0 200 c 1
600 200 m 1
 600 0 l 1
 800 0 l 1
 800 200 l 1
 600 200 l 1
1000 200 m 1
 1000 0 l 1
 1133.3333 0 1266.6667 0 1400 0 c 1
 1400 200 l 1
 1266.6667 200 1133.3333 200 1000 200 c 1
1600 200 m 1
 1600 0 l 1
 1800 0 l 1
 1800 200 l 1
 1600 200 l 1
EndSplineSet
Validated: 9
EndChar

StartChar: d
Encoding: 100 100 4
Width: 1600
VWidth: 90
Flags: W
LayerCount: 2
Back
Fore
SplineSet
1000 200 m 1
 1000 0 l 1
 1200 0 l 1
 1200 200 l 1
 1000 200 l 1
600 200 m 1
 600 0 l 1
 800 0 l 1
 800 200 l 1
 600 200 l 1
0 200 m 1
 0 0 l 1
 133.33333 0 266.66667 0 400 0 c 1
 400 200 l 1
 266.66667 200 133.33333 200 0 200 c 1
EndSplineSet
Validated: 9
EndChar

StartChar: e
Encoding: 101 101 5
Width: 600
VWidth: 90
Flags: W
LayerCount: 2
Back
Fore
SplineSet
0 200 m 1
 0 0 l 1
 200 0 l 1
 200 200 l 1
 0 200 l 1
EndSplineSet
Validated: 9
EndChar

StartChar: f
Encoding: 102 102 6
Width: 2000
VWidth: 90
Flags: W
LayerCount: 2
Back
Fore
SplineSet
400 200 m 1
 400 0 l 1
 600 0 l 1
 600 200 l 1
 400 200 l 1
1400 200 m 1
 1400 0 l 1
 1600 0 l 1
 1600 200 l 1
 1400 200 l 1
800 200 m 1
 800 0 l 1
 933.33333 0 1066.6667 0 1200 0 c 1
 1200 200 l 1
 1066.6667 200 933.33333 200 800 200 c 1
0 200 m 1
 0 0 l 1
 200 0 l 1
 200 200 l 1
 0 200 l 1
EndSplineSet
Validated: 9
EndChar

StartChar: h
Encoding: 104 104 7
Width: 1800
VWidth: 90
Flags: W
LayerCount: 2
Back
Fore
SplineSet
0 200 m 1
 0 0 l 1
 200 0 l 1
 200 200 l 1
 0 200 l 1
400 200 m 1
 400 0 l 1
 600 0 l 1
 600 200 l 1
 400 200 l 1
800 200 m 1
 800 0 l 1
 1000 0 l 1
 1000 200 l 1
 800 200 l 1
1200 200 m 1
 1200 0 l 1
 1400 0 l 1
 1400 200 l 1
 1200 200 l 1
EndSplineSet
Validated: 9
EndChar

StartChar: i
Encoding: 105 105 8
Width: 1000
VWidth: 90
LayerCount: 2
Back
Fore
SplineSet
400 200 m 1
 400 0 l 1
 600 0 l 1
 600 200 l 1
 400 200 l 1
0 200 m 1
 0 0 l 1
 200 0 l 1
 200 200 l 1
 0 200 l 1
EndSplineSet
Validated: 9
EndChar

StartChar: j
Encoding: 106 106 9
Width: 2400
VWidth: 90
Flags: W
LayerCount: 2
Back
Fore
SplineSet
0 200 m 1
 0 0 l 1
 200 0 l 1
 200 200 l 1
 0 200 l 1
400 200 m 1
 400 0 l 1
 533.33333 0 666.66667 0 800 0 c 1
 800 200 l 1
 666.66667 200 533.33333 200 400 200 c 1
1600 200 m 1
 1600 0 l 1
 1733.3333 0 1866.6667 0 2000 0 c 1
 2000 200 l 1
 1866.6667 200 1733.3333 200 1600 200 c 1
1000 200 m 1
 1000 0 l 1
 1133.3333 0 1266.6667 0 1400 0 c 1
 1400 200 l 1
 1266.6667 200 1133.3333 200 1000 200 c 1
EndSplineSet
Validated: 9
EndChar

StartChar: k
Encoding: 107 107 10
Width: 1800
VWidth: 90
Flags: W
LayerCount: 2
Back
Fore
SplineSet
0 200 m 1
 0 0 l 1
 133.3333 0 266.6667 0 400 0 c 1
 400 200 l 1
 266.6667 200 133.3333 200 0 200 c 1
1000 200 m 1
 1000 0 l 1
 1133.3333 0 1266.6667 0 1400 0 c 1
 1400 200 l 1
 1266.6667 200 1133.3333 200 1000 200 c 1
600 200 m 1
 600 0 l 1
 800 0 l 1
 800 200 l 1
 600 200 l 1
EndSplineSet
Validated: 9
EndChar

StartChar: l
Encoding: 108 108 11
Width: 2000
VWidth: 90
Flags: W
LayerCount: 2
Back
Fore
SplineSet
1000 200 m 1
 1000 0 l 1
 1200 0 l 1
 1200 200 l 1
 1000 200 l 1
1400 200 m 1
 1400 0 l 1
 1600 0 l 1
 1600 200 l 1
 1400 200 l 1
400 200 m 1
 400 0 l 1
 533.3333 0 666.6667 0 800 0 c 1
 800 200 l 1
 666.6667 200 533.3333 200 400 200 c 1
0 200 m 1
 0 0 l 1
 200 0 l 1
 200 200 l 1
 0 200 l 1
EndSplineSet
Validated: 9
EndChar

StartChar: m
Encoding: 109 109 12
Width: 1400
VWidth: 90
Flags: W
LayerCount: 2
Back
Fore
SplineSet
0 200 m 1
 0 0 l 1
 133.3333 0 266.6667 0 400 0 c 1
 400 200 l 1
 266.6667 200 133.3333 200 0 200 c 1
600 200 m 1
 600 0 l 1
 733.3333 0 866.6667 0 1000 0 c 1
 1000 200 l 1
 866.6667 200 733.3333 200 600 200 c 1
EndSplineSet
Validated: 9
EndChar

StartChar: n
Encoding: 110 110 13
Width: 1200
VWidth: 90
Flags: W
LayerCount: 2
Back
Fore
SplineSet
0 200 m 1
 0 0 l 1
 133.3333 0 266.6667 0 400 0 c 1
 400 200 l 1
 266.6667 200 133.3333 200 0 200 c 1
600 200 m 1
 600 0 l 1
 800 0 l 1
 800 200 l 1
 600 200 l 1
EndSplineSet
Validated: 9
EndChar

StartChar: o
Encoding: 111 111 14
Width: 2000
VWidth: 90
Flags: W
LayerCount: 2
Back
Fore
SplineSet
600 200 m 1
 600 0 l 1
 733.3333 0 866.6667 0 1000 0 c 1
 1000 200 l 1
 866.6667 200 733.3333 200 600 200 c 1
1200 200 m 1
 1200 0 l 1
 1333.3333 0 1466.6667 0 1600 0 c 1
 1600 200 l 1
 1466.6667 200 1333.3333 200 1200 200 c 1
0 200 m 1
 0 0 l 1
 133.3333 0 266.6667 0 400 0 c 1
 400 200 l 1
 266.6667 200 133.3333 200 0 200 c 1
EndSplineSet
Validated: 9
EndChar

StartChar: p
Encoding: 112 112 15
Width: 2200
VWidth: 90
Flags: W
LayerCount: 2
Back
Fore
SplineSet
400 200 m 1
 400 0 l 1
 533.3333 0 666.6667 0 800 0 c 1
 800 200 l 1
 666.6667 200 533.3333 200 400 200 c 1
1000 200 m 1
 1000 0 l 1
 1133.3333 0 1266.6667 0 1400 0 c 1
 1400 200 l 1
 1266.6667 200 1133.3333 200 1000 200 c 1
1600 200 m 1
 1600 0 l 1
 1800 0 l 1
 1800 200 l 1
 1600 200 l 1
0 200 m 1
 0 0 l 1
 200 0 l 1
 200 200 l 1
 0 200 l 1
EndSplineSet
Validated: 9
EndChar

StartChar: q
Encoding: 113 113 16
Width: 2400
VWidth: 90
Flags: W
LayerCount: 2
Back
Fore
SplineSet
1600 200 m 1
 1600 0 l 1
 1733.3333 0 1866.6667 0 2000 0 c 1
 2000 200 l 1
 1866.6667 200 1733.3333 200 1600 200 c 1
1200 200 m 1
 1200 0 l 1
 1400 0 l 1
 1400 200 l 1
 1200 200 l 1
600 200 m 1
 600 0 l 1
 733.3333 0 866.6667 0 1000 0 c 1
 1000 200 l 1
 866.6667 200 733.3333 200 600 200 c 1
0 200 m 1
 0 0 l 1
 133.3333 0 266.6667 0 400 0 c 1
 400 200 l 1
 266.6667 200 133.3333 200 0 200 c 1
EndSplineSet
Validated: 9
EndChar

StartChar: r
Encoding: 114 114 17
Width: 1600
VWidth: 90
Flags: W
LayerCount: 2
Back
Fore
SplineSet
1000 200 m 1
 1000 0 l 1
 1200 0 l 1
 1200 200 l 1
 1000 200 l 1
0 200 m 1
 0 0 l 1
 200 0 l 1
 200 200 l 1
 0 200 l 1
400 200 m 1
 400 0 l 1
 533.3333 0 666.6667 0 800 0 c 1
 800 200 l 1
 666.6667 200 533.3333 200 400 200 c 1
EndSplineSet
Validated: 9
EndChar

StartChar: s
Encoding: 115 115 18
Width: 1400
VWidth: 90
Flags: W
LayerCount: 2
Back
Fore
SplineSet
400 200 m 1
 400 0 l 1
 600 0 l 1
 600 200 l 1
 400 200 l 1
800 200 m 1
 800 0 l 1
 1000 0 l 1
 1000 200 l 1
 800 200 l 1
0 200 m 1
 0 0 l 1
 200 0 l 1
 200 200 l 1
 0 200 l 1
EndSplineSet
Validated: 9
EndChar

StartChar: t
Encoding: 116 116 19
Width: 800
VWidth: 90
Flags: W
LayerCount: 2
Back
Fore
SplineSet
0 200 m 1
 0 0 l 1
 133.33333 0 266.66667 0 400 0 c 1
 400 200 l 1
 266.66667 200 133.33333 200 0 200 c 1
EndSplineSet
Validated: 9
EndChar

StartChar: u
Encoding: 117 117 20
Width: 1600
VWidth: 90
Flags: W
LayerCount: 2
Back
Fore
SplineSet
400 200 m 1
 400 0 l 1
 600 0 l 1
 600 200 l 1
 400 200 l 1
0 200 m 1
 0 0 l 1
 200 0 l 1
 200 200 l 1
 0 200 l 1
800 200 m 1
 800 0 l 1
 933.33333 0 1066.6667 0 1200 0 c 1
 1200 200 l 1
 1066.6667 200 933.33333 200 800 200 c 1
EndSplineSet
Validated: 9
EndChar

StartChar: v
Encoding: 118 118 21
Width: 2000
VWidth: 90
Flags: W
LayerCount: 2
Back
Fore
SplineSet
400 200 m 1
 400 0 l 1
 600 0 l 1
 600 200 l 1
 400 200 l 1
0 200 m 1
 0 0 l 1
 200 0 l 1
 200 200 l 1
 0 200 l 1
1200 200 m 1
 1200 0 l 1
 1333.3333 0 1466.6667 0 1600 0 c 1
 1600 200 l 1
 1466.6667 200 1333.3333 200 1200 200 c 1
800 200 m 1
 800 0 l 1
 1000 0 l 1
 1000 200 l 1
 800 200 l 1
EndSplineSet
Validated: 9
EndChar

StartChar: w
Encoding: 119 119 22
Width: 1800
VWidth: 90
Flags: W
LayerCount: 2
Back
Fore
SplineSet
400 200 m 1
 400 0 l 1
 533.3333 0 666.6667 0 800 0 c 1
 800 200 l 1
 666.6667 200 533.3333 200 400 200 c 1
1000 200 m 1
 1000 0 l 1
 1133.3333 0 1266.6667 0 1400 0 c 1
 1400 200 l 1
 1266.6667 200 1133.3333 200 1000 200 c 1
0 200 m 1
 0 0 l 1
 200 0 l 1
 200 200 l 1
 0 200 l 1
EndSplineSet
Validated: 9
EndChar

StartChar: x
Encoding: 120 120 23
Width: 2200
VWidth: 90
Flags: W
LayerCount: 2
Back
Fore
SplineSet
1400 200 m 1
 1400 0 l 1
 1533.3333 0 1666.6667 0 1800 0 c 1
 1800 200 l 1
 1666.6667 200 1533.3333 200 1400 200 c 1
1000 200 m 1
 1000 0 l 1
 1200 0 l 1
 1200 200 l 1
 1000 200 l 1
0 200 m 1
 0 0 l 1
 133.3333 0 266.6667 0 400 0 c 1
 400 200 l 1
 266.6667 200 133.3333 200 0 200 c 1
600 200 m 1
 600 0 l 1
 800 0 l 1
 800 200 l 1
 600 200 l 1
EndSplineSet
Validated: 9
EndChar

StartChar: y
Encoding: 121 121 24
Width: 2400
VWidth: 90
Flags: W
LayerCount: 2
Back
Fore
SplineSet
1600 200 m 1
 1600 0 l 1
 1733.3333 0 1866.6667 0 2000 0 c 1
 2000 200 l 1
 1866.6667 200 1733.3333 200 1600 200 c 1
600 200 m 1
 600 0 l 1
 800 0 l 1
 800 200 l 1
 600 200 l 1
0 200 m 1
 0 0 l 1
 133.3333 0 266.6667 0 400 0 c 1
 400 200 l 1
 266.6667 200 133.3333 200 0 200 c 1
1000 200 m 1
 1000 0 l 1
 1133.3333 0 1266.6667 0 1400 0 c 1
 1400 200 l 1
 1266.6667 200 1133.3333 200 1000 200 c 1
EndSplineSet
Validated: 9
EndChar

StartChar: A
Encoding: 65 65 25
Width: 800
VWidth: 90
Flags: HW
LayerCount: 2
Back
Fore
SplineSet
400 200 m 1
 400 0 l 1
 533.33333 0 666.66667 0 800 0 c 1
 800 200 l 1
 666.66667 200 533.33333 200 400 200 c 1
0 200 m 1
 0 0 l 1
 200 0 l 1
 200 200 l 1
 0 200 l 1
EndSplineSet
Validated: 9
EndChar

StartChar: B
Encoding: 66 66 26
Width: 1600
VWidth: 90
Flags: HW
LayerCount: 2
Back
Fore
SplineSet
1400 200 m 1
 1400 0 l 1
 1600 0 l 1
 1600 200 l 1
 1400 200 l 1
1000 200 m 1
 1000 0 l 1
 1200 0 l 1
 1200 200 l 1
 1000 200 l 1
600 200 m 1
 600 0 l 1
 800 0 l 1
 800 200 l 1
 600 200 l 1
0 200 m 1
 0 0 l 1
 133.33333 0 266.66667 0 400 0 c 1
 400 200 l 1
 266.66667 200 133.33333 200 0 200 c 1
EndSplineSet
Validated: 9
EndChar

StartChar: C
Encoding: 67 67 27
Width: 1800
VWidth: 90
Flags: HW
LayerCount: 2
Back
Fore
SplineSet
0 200 m 1
 0 0 l 1
 133.33333 0 266.66667 0 400 0 c 1
 400 200 l 1
 266.66667 200 133.33333 200 0 200 c 1
600 200 m 1
 600 0 l 1
 800 0 l 1
 800 200 l 1
 600 200 l 1
1000 200 m 1
 1000 0 l 1
 1133.3333 0 1266.6667 0 1400 0 c 1
 1400 200 l 1
 1266.6667 200 1133.3333 200 1000 200 c 1
1600 200 m 1
 1600 0 l 1
 1800 0 l 1
 1800 200 l 1
 1600 200 l 1
EndSplineSet
Validated: 9
EndChar

StartChar: D
Encoding: 68 68 28
Width: 1200
VWidth: 90
Flags: HW
LayerCount: 2
Back
Fore
SplineSet
1000 200 m 1
 1000 0 l 1
 1200 0 l 1
 1200 200 l 1
 1000 200 l 1
600 200 m 1
 600 0 l 1
 800 0 l 1
 800 200 l 1
 600 200 l 1
0 200 m 1
 0 0 l 1
 133.33333 0 266.66667 0 400 0 c 1
 400 200 l 1
 266.66667 200 133.33333 200 0 200 c 1
EndSplineSet
Validated: 9
EndChar

StartChar: E
Encoding: 69 69 29
Width: 200
VWidth: 90
Flags: HW
LayerCount: 2
Back
Fore
SplineSet
0 200 m 1
 0 0 l 1
 200 0 l 1
 200 200 l 1
 0 200 l 1
EndSplineSet
Validated: 9
EndChar

StartChar: F
Encoding: 70 70 30
Width: 1600
VWidth: 90
Flags: HW
LayerCount: 2
Back
Fore
SplineSet
400 200 m 1
 400 0 l 1
 600 0 l 1
 600 200 l 1
 400 200 l 1
1400 200 m 1
 1400 0 l 1
 1600 0 l 1
 1600 200 l 1
 1400 200 l 1
800 200 m 1
 800 0 l 1
 933.33333 0 1066.6667 0 1200 0 c 1
 1200 200 l 1
 1066.6667 200 933.33333 200 800 200 c 1
0 200 m 1
 0 0 l 1
 200 0 l 1
 200 200 l 1
 0 200 l 1
EndSplineSet
Validated: 9
EndChar

StartChar: G
Encoding: 71 71 31
Width: 1400
VWidth: 90
Flags: HW
LayerCount: 2
Back
Fore
SplineSet
0 200 m 1
 0 0 l 1
 133.33333 0 266.6667 0 400 0 c 1
 400 200 l 1
 266.6667 200 133.33333 200 0 200 c 1
600 200 m 1
 600 0 l 1
 733.33333 0 866.6667 0 1000 0 c 1
 1000 200 l 1
 866.6667 200 733.33333 200 600 200 c 1
1200 200 m 1
 1200 0 l 1
 1400 0 l 1
 1400 200 l 1
 1200 200 l 1
EndSplineSet
Validated: 9
EndChar

StartChar: H
Encoding: 72 72 32
Width: 1400
VWidth: 90
Flags: HW
LayerCount: 2
Back
Fore
SplineSet
0 200 m 1
 0 0 l 1
 200 0 l 1
 200 200 l 1
 0 200 l 1
400 200 m 1
 400 0 l 1
 600 0 l 1
 600 200 l 1
 400 200 l 1
800 200 m 1
 800 0 l 1
 1000 0 l 1
 1000 200 l 1
 800 200 l 1
1200 200 m 1
 1200 0 l 1
 1400 0 l 1
 1400 200 l 1
 1200 200 l 1
EndSplineSet
Validated: 9
EndChar

StartChar: I
Encoding: 73 73 33
Width: 600
VWidth: 90
Flags: HW
LayerCount: 2
Back
Fore
SplineSet
400 200 m 1
 400 0 l 1
 600 0 l 1
 600 200 l 1
 400 200 l 1
0 200 m 1
 0 0 l 1
 200 0 l 1
 200 200 l 1
 0 200 l 1
EndSplineSet
Validated: 9
EndChar

StartChar: J
Encoding: 74 74 34
Width: 2000
VWidth: 90
Flags: HW
LayerCount: 2
Back
Fore
SplineSet
0 200 m 1
 0 0 l 1
 200 0 l 1
 200 200 l 1
 0 200 l 1
400 200 m 1
 400 0 l 1
 533.33333 0 666.66667 0 800 0 c 1
 800 200 l 1
 666.66667 200 533.33333 200 400 200 c 1
1600 200 m 1
 1600 0 l 1
 1733.3333 0 1866.6667 0 2000 0 c 1
 2000 200 l 1
 1866.6667 200 1733.3333 200 1600 200 c 1
1000 200 m 1
 1000 0 l 1
 1133.3333 0 1266.6667 0 1400 0 c 1
 1400 200 l 1
 1266.6667 200 1133.3333 200 1000 200 c 1
EndSplineSet
Validated: 9
EndChar

StartChar: K
Encoding: 75 75 35
Width: 1400
VWidth: 90
Flags: HW
LayerCount: 2
Back
Fore
SplineSet
0 200 m 1
 0 0 l 1
 133.3333 0 266.6667 0 400 0 c 1
 400 200 l 1
 266.6667 200 133.3333 200 0 200 c 1
1000 200 m 1
 1000 0 l 1
 1133.3333 0 1266.6667 0 1400 0 c 1
 1400 200 l 1
 1266.6667 200 1133.3333 200 1000 200 c 1
600 200 m 1
 600 0 l 1
 800 0 l 1
 800 200 l 1
 600 200 l 1
EndSplineSet
Validated: 9
EndChar

StartChar: L
Encoding: 76 76 36
Width: 1600
VWidth: 90
Flags: HW
LayerCount: 2
Back
Fore
SplineSet
1000 200 m 1
 1000 0 l 1
 1200 0 l 1
 1200 200 l 1
 1000 200 l 1
1400 200 m 1
 1400 0 l 1
 1600 0 l 1
 1600 200 l 1
 1400 200 l 1
400 200 m 1
 400 0 l 1
 533.3333 0 666.6667 0 800 0 c 1
 800 200 l 1
 666.6667 200 533.3333 200 400 200 c 1
0 200 m 1
 0 0 l 1
 200 0 l 1
 200 200 l 1
 0 200 l 1
EndSplineSet
Validated: 9
EndChar

StartChar: M
Encoding: 77 77 37
Width: 1000
VWidth: 90
Flags: HW
LayerCount: 2
Back
Fore
SplineSet
0 200 m 1
 0 0 l 1
 133.3333 0 266.6667 0 400 0 c 1
 400 200 l 1
 266.6667 200 133.3333 200 0 200 c 1
600 200 m 1
 600 0 l 1
 733.3333 0 866.6667 0 1000 0 c 1
 1000 200 l 1
 866.6667 200 733.3333 200 600 200 c 1
EndSplineSet
Validated: 9
EndChar

StartChar: N
Encoding: 78 78 38
Width: 800
VWidth: 90
Flags: HW
LayerCount: 2
Back
Fore
SplineSet
0 200 m 1
 0 0 l 1
 133.3333 0 266.6667 0 400 0 c 1
 400 200 l 1
 266.6667 200 133.3333 200 0 200 c 1
600 200 m 1
 600 0 l 1
 800 0 l 1
 800 200 l 1
 600 200 l 1
EndSplineSet
Validated: 9
EndChar

StartChar: O
Encoding: 79 79 39
Width: 1600
VWidth: 90
Flags: HW
LayerCount: 2
Back
Fore
SplineSet
600 200 m 1
 600 0 l 1
 733.3333 0 866.6667 0 1000 0 c 1
 1000 200 l 1
 866.6667 200 733.3333 200 600 200 c 1
1200 200 m 1
 1200 0 l 1
 1333.3333 0 1466.6667 0 1600 0 c 1
 1600 200 l 1
 1466.6667 200 1333.3333 200 1200 200 c 1
0 200 m 1
 0 0 l 1
 133.3333 0 266.6667 0 400 0 c 1
 400 200 l 1
 266.6667 200 133.3333 200 0 200 c 1
EndSplineSet
Validated: 9
EndChar

StartChar: P
Encoding: 80 80 40
Width: 1800
VWidth: 90
Flags: HW
LayerCount: 2
Back
Fore
SplineSet
400 200 m 1
 400 0 l 1
 533.3333 0 666.6667 0 800 0 c 1
 800 200 l 1
 666.6667 200 533.3333 200 400 200 c 1
1000 200 m 1
 1000 0 l 1
 1133.3333 0 1266.6667 0 1400 0 c 1
 1400 200 l 1
 1266.6667 200 1133.3333 200 1000 200 c 1
1600 200 m 1
 1600 0 l 1
 1800 0 l 1
 1800 200 l 1
 1600 200 l 1
0 200 m 1
 0 0 l 1
 200 0 l 1
 200 200 l 1
 0 200 l 1
EndSplineSet
Validated: 9
EndChar

StartChar: Q
Encoding: 81 81 41
Width: 2000
VWidth: 90
Flags: HW
LayerCount: 2
Back
Fore
SplineSet
1600 200 m 1
 1600 0 l 1
 1733.3333 0 1866.6667 0 2000 0 c 1
 2000 200 l 1
 1866.6667 200 1733.3333 200 1600 200 c 1
1200 200 m 1
 1200 0 l 1
 1400 0 l 1
 1400 200 l 1
 1200 200 l 1
600 200 m 1
 600 0 l 1
 733.3333 0 866.6667 0 1000 0 c 1
 1000 200 l 1
 866.6667 200 733.3333 200 600 200 c 1
0 200 m 1
 0 0 l 1
 133.3333 0 266.6667 0 400 0 c 1
 400 200 l 1
 266.6667 200 133.3333 200 0 200 c 1
EndSplineSet
Validated: 9
EndChar

StartChar: R
Encoding: 82 82 42
Width: 1200
VWidth: 90
Flags: HW
LayerCount: 2
Back
Fore
SplineSet
1000 200 m 1
 1000 0 l 1
 1200 0 l 1
 1200 200 l 1
 1000 200 l 1
0 200 m 1
 0 0 l 1
 200 0 l 1
 200 200 l 1
 0 200 l 1
400 200 m 1
 400 0 l 1
 533.3333 0 666.6667 0 800 0 c 1
 800 200 l 1
 666.6667 200 533.3333 200 400 200 c 1
EndSplineSet
Validated: 9
EndChar

StartChar: S
Encoding: 83 83 43
Width: 1000
VWidth: 90
Flags: HW
LayerCount: 2
Back
Fore
SplineSet
400 200 m 1
 400 0 l 1
 600 0 l 1
 600 200 l 1
 400 200 l 1
800 200 m 1
 800 0 l 1
 1000 0 l 1
 1000 200 l 1
 800 200 l 1
0 200 m 1
 0 0 l 1
 200 0 l 1
 200 200 l 1
 0 200 l 1
EndSplineSet
Validated: 9
EndChar

StartChar: T
Encoding: 84 84 44
Width: 400
VWidth: 90
Flags: HW
LayerCount: 2
Back
Fore
SplineSet
0 200 m 5
 0 0 l 5
 133.333007812 0 266.666992188 0 400 0 c 5
 400 200 l 5
 266.666992188 200 133.333007812 200 0 200 c 5
EndSplineSet
EndChar

StartChar: U
Encoding: 85 85 45
Width: 1200
VWidth: 90
Flags: HW
LayerCount: 2
Back
Fore
SplineSet
400 200 m 1
 400 0 l 1
 600 0 l 1
 600 200 l 1
 400 200 l 1
0 200 m 1
 0 0 l 1
 200 0 l 1
 200 200 l 1
 0 200 l 1
800 200 m 1
 800 0 l 1
 933.33333 0 1066.6667 0 1200 0 c 1
 1200 200 l 1
 1066.6667 200 933.33333 200 800 200 c 1
EndSplineSet
Validated: 9
EndChar

StartChar: V
Encoding: 86 86 46
Width: 1600
VWidth: 90
Flags: HW
LayerCount: 2
Back
Fore
SplineSet
400 200 m 1
 400 0 l 1
 600 0 l 1
 600 200 l 1
 400 200 l 1
0 200 m 1
 0 0 l 1
 200 0 l 1
 200 200 l 1
 0 200 l 1
1200 200 m 1
 1200 0 l 1
 1333.3333 0 1466.6667 0 1600 0 c 1
 1600 200 l 1
 1466.6667 200 1333.3333 200 1200 200 c 1
800 200 m 1
 800 0 l 1
 1000 0 l 1
 1000 200 l 1
 800 200 l 1
EndSplineSet
Validated: 9
EndChar

StartChar: W
Encoding: 87 87 47
Width: 1400
VWidth: 90
Flags: HW
LayerCount: 2
Back
Fore
SplineSet
400 200 m 1
 400 0 l 1
 533.3333 0 666.6667 0 800 0 c 1
 800 200 l 1
 666.6667 200 533.3333 200 400 200 c 1
1000 200 m 1
 1000 0 l 1
 1133.3333 0 1266.6667 0 1400 0 c 1
 1400 200 l 1
 1266.6667 200 1133.3333 200 1000 200 c 1
0 200 m 1
 0 0 l 1
 200 0 l 1
 200 200 l 1
 0 200 l 1
EndSplineSet
Validated: 9
EndChar

StartChar: X
Encoding: 88 88 48
Width: 1800
VWidth: 90
Flags: HW
LayerCount: 2
Back
Fore
SplineSet
1400 200 m 1
 1400 0 l 1
 1533.3333 0 1666.6667 0 1800 0 c 1
 1800 200 l 1
 1666.6667 200 1533.3333 200 1400 200 c 1
1000 200 m 1
 1000 0 l 1
 1200 0 l 1
 1200 200 l 1
 1000 200 l 1
0 200 m 1
 0 0 l 1
 133.3333 0 266.6667 0 400 0 c 1
 400 200 l 1
 266.6667 200 133.3333 200 0 200 c 1
600 200 m 1
 600 0 l 1
 800 0 l 1
 800 200 l 1
 600 200 l 1
EndSplineSet
Validated: 9
EndChar

StartChar: Y
Encoding: 89 89 49
Width: 2000
VWidth: 90
Flags: HW
LayerCount: 2
Back
Fore
SplineSet
1600 200 m 1
 1600 0 l 1
 1733.3333 0 1866.6667 0 2000 0 c 1
 2000 200 l 1
 1866.6667 200 1733.3333 200 1600 200 c 1
600 200 m 1
 600 0 l 1
 800 0 l 1
 800 200 l 1
 600 200 l 1
0 200 m 1
 0 0 l 1
 133.3333 0 266.6667 0 400 0 c 1
 400 200 l 1
 266.6667 200 133.3333 200 0 200 c 1
1000 200 m 1
 1000 0 l 1
 1133.3333 0 1266.6667 0 1400 0 c 1
 1400 200 l 1
 1266.6667 200 1133.3333 200 1000 200 c 1
EndSplineSet
Validated: 9
EndChar

StartChar: 0
Encoding: 48 48 50
Width: 3200
VWidth: 90
Flags: W
LayerCount: 2
Back
Fore
SplineSet
2400 200 m 1
 2400 0 l 1
 2533.3333 0 2666.6667 0 2800 0 c 1
 2800 200 l 1
 2666.6667 200 2533.3333 200 2400 200 c 1
1200 200 m 1
 1200 0 l 1
 1333.3333 0 1466.6667 0 1600 0 c 1
 1600 200 l 1
 1466.6667 200 1333.3333 200 1200 200 c 1
1800 200 m 1
 1800 0 l 1
 1933.3333 0 2066.6667 0 2200 0 c 1
 2200 200 l 1
 2066.6667 200 1933.3333 200 1800 200 c 1
0 200 m 1
 0 0 l 1
 133.3333 0 266.6667 0 400 0 c 1
 400 200 l 1
 266.6667 200 133.3333 200 0 200 c 1
600 200 m 1
 600 0 l 1
 733.3333 0 866.6667 0 1000 0 c 1
 1000 200 l 1
 866.6667 200 733.3333 200 600 200 c 1
EndSplineSet
Validated: 9
EndChar

StartChar: 1
Encoding: 49 49 51
Width: 3000
VWidth: 90
Flags: W
LayerCount: 2
Back
Fore
SplineSet
400 200 m 1
 400 0 l 1
 533.3333 0 666.6667 0 800 0 c 1
 800 200 l 1
 666.6667 200 533.3333 200 400 200 c 1
1000 200 m 1
 1000 0 l 1
 1133.3333 0 1266.6667 0 1400 0 c 1
 1400 200 l 1
 1266.6667 200 1133.3333 200 1000 200 c 1
0 200 m 1
 0 0 l 1
 200 0 l 1
 200 200 l 1
 0 200 l 1
2200 200 m 1
 2200 0 l 1
 2333.3333 0 2466.6667 0 2600 0 c 1
 2600 200 l 1
 2466.6667 200 2333.3333 200 2200 200 c 1
1600 200 m 1
 1600 0 l 1
 1733.3333 0 1866.6667 0 2000 0 c 1
 2000 200 l 1
 1866.6667 200 1733.3333 200 1600 200 c 1
EndSplineSet
Validated: 9
EndChar

StartChar: 2
Encoding: 50 50 52
Width: 2800
VWidth: 90
Flags: W
LayerCount: 2
Back
Fore
SplineSet
1400 200 m 1
 1400 0 l 1
 1533.3333 0 1666.6667 0 1800 0 c 1
 1800 200 l 1
 1666.6667 200 1533.3333 200 1400 200 c 1
2000 200 m 1
 2000 0 l 1
 2133.3333 0 2266.6667 0 2400 0 c 1
 2400 200 l 1
 2266.6667 200 2133.3333 200 2000 200 c 1
400 200 m 1
 400 0 l 1
 600 0 l 1
 600 200 l 1
 400 200 l 1
0 200 m 1
 0 0 l 1
 200 0 l 1
 200 200 l 1
 0 200 l 1
800 200 m 1
 800 0 l 1
 933.3333 0 1066.6667 0 1200 0 c 1
 1200 200 l 1
 1066.6667 200 933.3333 200 800 200 c 1
EndSplineSet
Validated: 9
EndChar

StartChar: 3
Encoding: 51 51 53
Width: 2600
VWidth: 90
Flags: W
LayerCount: 2
Back
Fore
SplineSet
1200 200 m 1
 1200 0 l 1
 1333.3333 0 1466.6667 0 1600 0 c 1
 1600 200 l 1
 1466.6667 200 1333.3333 200 1200 200 c 1
0 200 m 1
 0 0 l 1
 200 0 l 1
 200 200 l 1
 0 200 l 1
800 200 m 1
 800 0 l 1
 1000 0 l 1
 1000 200 l 1
 800 200 l 1
400 200 m 1
 400 0 l 1
 600 0 l 1
 600 200 l 1
 400 200 l 1
1800 200 m 1
 1800 0 l 1
 1933.3333 0 2066.6667 0 2200 0 c 1
 2200 200 l 1
 2066.6667 200 1933.3333 200 1800 200 c 1
EndSplineSet
Validated: 9
EndChar

StartChar: 4
Encoding: 52 52 54
Width: 2400
VWidth: 90
Flags: W
LayerCount: 2
Back
Fore
SplineSet
1600 200 m 1
 1600 0 l 1
 1733.3333 0 1866.6667 0 2000 0 c 1
 2000 200 l 1
 1866.6667 200 1733.3333 200 1600 200 c 1
400 200 m 1
 400 0 l 1
 600 0 l 1
 600 200 l 1
 400 200 l 1
1200 200 m 1
 1200 0 l 1
 1400 0 l 1
 1400 200 l 1
 1200 200 l 1
800 200 m 1
 800 0 l 1
 1000 0 l 1
 1000 200 l 1
 800 200 l 1
0 200 m 1
 0 0 l 1
 200 0 l 1
 200 200 l 1
 0 200 l 1
EndSplineSet
Validated: 9
EndChar

StartChar: 5
Encoding: 53 53 55
Width: 2200
VWidth: 90
Flags: W
LayerCount: 2
Back
Fore
SplineSet
0 200 m 1
 0 0 l 1
 200 0 l 1
 200 200 l 1
 0 200 l 1
800 200 m 1
 800 0 l 1
 1000 0 l 1
 1000 200 l 1
 800 200 l 1
1200 200 m 1
 1200 0 l 1
 1400 0 l 1
 1400 200 l 1
 1200 200 l 1
1600 200 m 1
 1600 0 l 1
 1800 0 l 1
 1800 200 l 1
 1600 200 l 1
400 200 m 1
 400 0 l 1
 600 0 l 1
 600 200 l 1
 400 200 l 1
EndSplineSet
Validated: 9
EndChar

StartChar: 6
Encoding: 54 54 56
Width: 2400
VWidth: 90
Flags: W
LayerCount: 2
Back
Fore
SplineSet
600 200 m 1
 600 0 l 1
 800 0 l 1
 800 200 l 1
 600 200 l 1
1800 200 m 1
 1800 0 l 1
 2000 0 l 1
 2000 200 l 1
 1800 200 l 1
0 200 m 1
 0 0 l 1
 133.3333 0 266.6667 0 400 0 c 1
 400 200 l 1
 266.6667 200 133.3333 200 0 200 c 1
1400 200 m 1
 1400 0 l 1
 1600 0 l 1
 1600 200 l 1
 1400 200 l 1
1000 200 m 1
 1000 0 l 1
 1200 0 l 1
 1200 200 l 1
 1000 200 l 1
EndSplineSet
Validated: 9
EndChar

StartChar: 7
Encoding: 55 55 57
Width: 2600
VWidth: 90
Flags: W
LayerCount: 2
Back
Fore
SplineSet
1200 200 m 1
 1200 0 l 1
 1400 0 l 1
 1400 200 l 1
 1200 200 l 1
1600 200 m 1
 1600 0 l 1
 1800 0 l 1
 1800 200 l 1
 1600 200 l 1
600 200 m 1
 600 0 l 1
 733.3333 0 866.6667 0 1000 0 c 1
 1000 200 l 1
 866.6667 200 733.3333 200 600 200 c 1
0 200 m 1
 0 0 l 1
 133.3333 0 266.6667 0 400 0 c 1
 400 200 l 1
 266.6667 200 133.3333 200 0 200 c 1
2000 200 m 1
 2000 0 l 1
 2200 0 l 1
 2200 200 l 1
 2000 200 l 1
EndSplineSet
Validated: 9
EndChar

StartChar: 8
Encoding: 56 56 58
Width: 2800
VWidth: 90
Flags: W
LayerCount: 2
Back
Fore
SplineSet
2200 200 m 1
 2200 0 l 1
 2400 0 l 1
 2400 200 l 1
 2200 200 l 1
1200 200 m 1
 1200 0 l 1
 1333.3333 0 1466.6667 0 1600 0 c 1
 1600 200 l 1
 1466.6667 200 1333.3333 200 1200 200 c 1
0 200 m 1
 0 0 l 1
 133.3333 0 266.6667 0 400 0 c 1
 400 200 l 1
 266.6667 200 133.3333 200 0 200 c 1
600 200 m 1
 600 0 l 1
 733.3333 0 866.6667 0 1000 0 c 1
 1000 200 l 1
 866.6667 200 733.3333 200 600 200 c 1
1800 200 m 1
 1800 0 l 1
 2000 0 l 1
 2000 200 l 1
 1800 200 l 1
EndSplineSet
Validated: 9
EndChar

StartChar: 9
Encoding: 57 57 59
Width: 3000
VWidth: 90
Flags: W
LayerCount: 2
Back
Fore
SplineSet
2400 200 m 1
 2400 0 l 1
 2600 0 l 1
 2600 200 l 1
 2400 200 l 1
600 200 m 1
 600 0 l 1
 733.3333 0 866.6667 0 1000 0 c 1
 1000 200 l 1
 866.6667 200 733.3333 200 600 200 c 1
0 200 m 1
 0 0 l 1
 133.3333 0 266.6667 0 400 0 c 1
 400 200 l 1
 266.6667 200 133.3333 200 0 200 c 1
1800 200 m 1
 1800 0 l 1
 1933.3333 0 2066.6667 0 2200 0 c 1
 2200 200 l 1
 2066.6667 200 1933.3333 200 1800 200 c 1
1200 200 m 1
 1200 0 l 1
 1333.3333 0 1466.6667 0 1600 0 c 1
 1600 200 l 1
 1466.6667 200 1333.3333 200 1200 200 c 1
EndSplineSet
Validated: 9
EndChar

StartChar: g
Encoding: 103 103 60
Width: 1800
VWidth: 90
Flags: W
LayerCount: 2
Back
Fore
SplineSet
0 200 m 1
 0 0 l 1
 133.33333 0 266.6667 0 400 0 c 1
 400 200 l 1
 266.6667 200 133.33333 200 0 200 c 1
600 200 m 1
 600 0 l 1
 733.33333 0 866.6667 0 1000 0 c 1
 1000 200 l 1
 866.6667 200 733.33333 200 600 200 c 1
1200 200 m 1
 1200 0 l 1
 1400 0 l 1
 1400 200 l 1
 1200 200 l 1
EndSplineSet
Validated: 9
EndChar

StartChar: z
Encoding: 122 122 61
Width: 2200
VWidth: 90
Flags: W
LayerCount: 2
Back
Fore
SplineSet
600 200 m 1
 600 0 l 1
 733.3333 0 866.6667 0 1000 0 c 1
 1000 200 l 1
 866.6667 200 733.3333 200 600 200 c 1
0 200 m 1
 0 0 l 1
 133.3333 0 266.6667 0 400 0 c 1
 400 200 l 1
 266.6667 200 133.3333 200 0 200 c 1
1200 200 m 1
 1200 0 l 1
 1400 0 l 1
 1400 200 l 1
 1200 200 l 1
1600 200 m 1
 1600 0 l 1
 1800 0 l 1
 1800 200 l 1
 1600 200 l 1
EndSplineSet
Validated: 9
EndChar

StartChar: Z
Encoding: 90 90 62
Width: 1800
VWidth: 90
Flags: HW
LayerCount: 2
Back
Fore
SplineSet
600 200 m 1
 600 0 l 1
 733.3333 0 866.6667 0 1000 0 c 1
 1000 200 l 1
 866.6667 200 733.3333 200 600 200 c 1
0 200 m 1
 0 0 l 1
 133.3333 0 266.6667 0 400 0 c 1
 400 200 l 1
 266.6667 200 133.3333 200 0 200 c 1
1200 200 m 1
 1200 0 l 1
 1400 0 l 1
 1400 200 l 1
 1200 200 l 1
1600 200 m 1
 1600 0 l 1
 1800 0 l 1
 1800 200 l 1
 1600 200 l 1
EndSplineSet
Validated: 9
EndChar

StartChar: @
Encoding: 64 64 63
Width: 3200
VWidth: 90
Flags: W
LayerCount: 2
Back
Fore
SplineSet
2600 200 m 1
 2600 0 l 1
 2800 0 l 1
 2800 200 l 1
 2600 200 l 1
1600 200 m 1
 1600 0 l 1
 1800 0 l 1
 1800 200 l 1
 1600 200 l 1
2000 200 m 1
 2000 0 l 1
 2133.3333 0 2266.6667 0 2400 0 c 1
 2400 200 l 1
 2266.6667 200 2133.3333 200 2000 200 c 1
0 200 m 1
 0 0 l 1
 200 0 l 1
 200 200 l 1
 0 200 l 1
1000 200 m 1
 1000 0 l 1
 1133.3333 0 1266.6667 0 1400 0 c 1
 1400 200 l 1
 1266.6667 200 1133.3333 200 1000 200 c 1
400 200 m 1
 400 0 l 1
 533.3333 0 666.6667 0 800 0 c 1
 800 200 l 1
 666.6667 200 533.3333 200 400 200 c 1
EndSplineSet
Validated: 521
EndChar

StartChar: (
Encoding: 40 40 64
Width: 2800
VWidth: 90
Flags: W
LayerCount: 2
Back
Fore
SplineSet
600 200 m 1
 600 0 l 1
 800 0 l 1
 800 200 l 1
 600 200 l 1
0 200 m 1
 0 0 l 1
 133.3333 0 266.6667 0 400 0 c 1
 400 200 l 1
 266.6667 200 133.3333 200 0 200 c 1
1000 200 m 1
 1000 0 l 1
 1133.3333 0 1266.6667 0 1400 0 c 1
 1400 200 l 1
 1266.6667 200 1133.3333 200 1000 200 c 1
1600 200 m 1
 1600 0 l 1
 1733.3333 0 1866.6667 0 2000 0 c 1
 2000 200 l 1
 1866.6667 200 1733.3333 200 1600 200 c 1
2200 200 m 1
 2200 0 l 1
 2400 0 l 1
 2400 200 l 1
 2200 200 l 1
EndSplineSet
Validated: 521
EndChar

StartChar: )
Encoding: 41 41 65
Width: 3400
VWidth: 90
Flags: W
LayerCount: 2
Back
Fore
SplineSet
2600 200 m 1
 2600 0 l 1
 2733.3333 0 2866.6667 0 3000 0 c 1
 3000 200 l 1
 2866.6667 200 2733.3333 200 2600 200 c 1
2200 200 m 1
 2200 0 l 1
 2400 0 l 1
 2400 200 l 1
 2200 200 l 1
1600 200 m 1
 1600 0 l 1
 1733.3333 0 1866.6667 0 2000 0 c 1
 2000 200 l 1
 1866.6667 200 1733.3333 200 1600 200 c 1
1000 200 m 1
 1000 0 l 1
 1133.3333 0 1266.6667 0 1400 0 c 1
 1400 200 l 1
 1266.6667 200 1133.3333 200 1000 200 c 1
0 200 m 1
 0 0 l 1
 133.3333 0 266.6667 0 400 0 c 1
 400 200 l 1
 266.6667 200 133.3333 200 0 200 c 1
600 200 m 1
 600 0 l 1
 800 0 l 1
 800 200 l 1
 600 200 l 1
EndSplineSet
Validated: 521
EndChar

StartChar: -
Encoding: 45 45 66
Width: 3000
VWidth: 90
Flags: W
LayerCount: 2
Back
Fore
SplineSet
1400 200 m 1
 1400 0 l 1
 1600 0 l 1
 1600 200 l 1
 1400 200 l 1
1000 200 m 1
 1000 0 l 1
 1200 0 l 1
 1200 200 l 1
 1000 200 l 1
600 200 m 1
 600 0 l 1
 800 0 l 1
 800 200 l 1
 600 200 l 1
0 200 m 1
 0 0 l 1
 133.3333 0 266.6667 0 400 0 c 1
 400 200 l 1
 266.6667 200 133.3333 200 0 200 c 1
1800 200 m 1
 1800 0 l 1
 2000 0 l 1
 2000 200 l 1
 1800 200 l 1
2200 200 m 1
 2200 0 l 1
 2333.3333 0 2466.6667 0 2600 0 c 1
 2600 200 l 1
 2466.6667 200 2333.3333 200 2200 200 c 1
EndSplineSet
Validated: 521
EndChar

StartChar: =
Encoding: 61 61 67
Width: 2600
VWidth: 90
Flags: W
LayerCount: 2
Back
Fore
SplineSet
1800 200 m 1
 1800 0 l 1
 1933.3333 0 2066.6667 0 2200 0 c 1
 2200 200 l 1
 2066.6667 200 1933.3333 200 1800 200 c 1
1400 200 m 1
 1400 0 l 1
 1600 0 l 1
 1600 200 l 1
 1400 200 l 1
0 200 m 1
 0 0 l 1
 133.3333 0 266.6667 0 400 0 c 1
 400 200 l 1
 266.6667 200 133.3333 200 0 200 c 1
600 200 m 1
 600 0 l 1
 800 0 l 1
 800 200 l 1
 600 200 l 1
1000 200 m 1
 1000 0 l 1
 1200 0 l 1
 1200 200 l 1
 1000 200 l 1
EndSplineSet
Validated: 521
EndChar

StartChar: _
Encoding: 95 95 68
Width: 3200
VWidth: 90
Flags: W
LayerCount: 2
Back
Fore
SplineSet
2000 200 m 1
 2000 0 l 1
 2200 0 l 1
 2200 200 l 1
 2000 200 l 1
2400 200 m 1
 2400 0 l 1
 2533.3333 0 2666.6667 0 2800 0 c 1
 2800 200 l 1
 2666.6667 200 2533.3333 200 2400 200 c 1
0 200 m 1
 0 0 l 1
 200 0 l 1
 200 200 l 1
 0 200 l 1
1400 200 m 1
 1400 0 l 1
 1533.3333 0 1666.6667 0 1800 0 c 1
 1800 200 l 1
 1666.6667 200 1533.3333 200 1400 200 c 1
400 200 m 1
 400 0 l 1
 600 0 l 1
 600 200 l 1
 400 200 l 1
800 200 m 1
 800 0 l 1
 933.3333 0 1066.6667 0 1200 0 c 1
 1200 200 l 1
 1066.6667 200 933.3333 200 800 200 c 1
EndSplineSet
Validated: 9
EndChar

StartChar: +
Encoding: 43 43 69
Width: 2600
VWidth: 90
Flags: W
LayerCount: 2
Back
Fore
SplineSet
2000 200 m 1
 2000 0 l 1
 2200 0 l 1
 2200 200 l 1
 2000 200 l 1
400 200 m 1
 400 0 l 1
 533.3333 0 666.6667 0 800 0 c 1
 800 200 l 1
 666.6667 200 533.3333 200 400 200 c 1
0 200 m 1
 0 0 l 1
 200 0 l 1
 200 200 l 1
 0 200 l 1
1400 200 m 1
 1400 0 l 1
 1533.3333 0 1666.6667 0 1800 0 c 1
 1800 200 l 1
 1666.6667 200 1533.3333 200 1400 200 c 1
1000 200 m 1
 1000 0 l 1
 1200 0 l 1
 1200 200 l 1
 1000 200 l 1
EndSplineSet
Validated: 521
EndChar

StartChar: /
Encoding: 47 47 70
Width: 1000
VWidth: 90
LayerCount: 2
Back
Fore
SplineSet
1000 200 m 1
 1000 0 l 1
 1200 0 l 1
 1200 200 l 1
 1000 200 l 1
1400 200 m 1
 1400 0 l 1
 1533.3333 0 1666.6667 0 1800 0 c 1
 1800 200 l 1
 1666.6667 200 1533.3333 200 1400 200 c 1
600 200 m 1
 600 0 l 1
 800 0 l 1
 800 200 l 1
 600 200 l 1
0 200 m 1
 0 0 l 1
 133.3333 0 266.6667 0 400 0 c 1
 400 200 l 1
 266.6667 200 133.3333 200 0 200 c 1
2000 200 m 1
 2000 0 l 1
 2200 0 l 1
 2200 200 l 1
 2000 200 l 1
EndSplineSet
Validated: 521
EndChar

StartChar: ?
Encoding: 63 63 71
Width: 3000
VWidth: 90
Flags: W
LayerCount: 2
Back
Fore
SplineSet
400 200 m 1
 400 0 l 1
 600 0 l 1
 600 200 l 1
 400 200 l 1
800 200 m 1
 800 0 l 1
 933.3333 0 1066.6667 0 1200 0 c 1
 1200 200 l 1
 1066.6667 200 933.3333 200 800 200 c 1
2400 200 m 1
 2400 0 l 1
 2600 0 l 1
 2600 200 l 1
 2400 200 l 1
2000 200 m 1
 2000 0 l 1
 2200 0 l 1
 2200 200 l 1
 2000 200 l 1
0 200 m 1
 0 0 l 1
 200 0 l 1
 200 200 l 1
 0 200 l 1
1400 200 m 1
 1400 0 l 1
 1533.3333 0 1666.6667 0 1800 0 c 1
 1800 200 l 1
 1666.6667 200 1533.3333 200 1400 200 c 1
EndSplineSet
Validated: 521
EndChar

StartChar: .
Encoding: 46 46 72
Width: 3200
VWidth: 90
Flags: W
LayerCount: 2
Back
Fore
SplineSet
2400 200 m 1
 2400 0 l 1
 2533.3333 0 2666.6667 0 2800 0 c 1
 2800 200 l 1
 2666.6667 200 2533.3333 200 2400 200 c 1
1000 200 m 1
 1000 0 l 1
 1200 0 l 1
 1200 200 l 1
 1000 200 l 1
1400 200 m 1
 1400 0 l 1
 1533.3333 0 1666.6667 0 1800 0 c 1
 1800 200 l 1
 1666.6667 200 1533.3333 200 1400 200 c 1
2000 200 m 1
 2000 0 l 1
 2200 0 l 1
 2200 200 l 1
 2000 200 l 1
400 200 m 1
 400 0 l 1
 533.3333 0 666.6667 0 800 0 c 1
 800 200 l 1
 666.6667 200 533.3333 200 400 200 c 1
0 200 m 1
 0 0 l 1
 200 0 l 1
 200 200 l 1
 0 200 l 1
EndSplineSet
Validated: 9
EndChar

StartChar: ,
Encoding: 44 44 73
Width: 3400
VWidth: 90
Flags: W
LayerCount: 2
Back
Fore
SplineSet
2600 200 m 1
 2600 0 l 1
 2733.3333 0 2866.6667 0 3000 0 c 1
 3000 200 l 1
 2866.6667 200 2733.3333 200 2600 200 c 1
1600 200 m 1
 1600 0 l 1
 1800 0 l 1
 1800 200 l 1
 1600 200 l 1
0 200 m 1
 0 0 l 1
 133.3333 0 266.6667 0 400 0 c 1
 400 200 l 1
 266.6667 200 133.3333 200 0 200 c 1
1200 200 m 1
 1200 0 l 1
 1400 0 l 1
 1400 200 l 1
 1200 200 l 1
600 200 m 1
 600 0 l 1
 733.3333 0 866.6667 0 1000 0 c 1
 1000 200 l 1
 866.6667 200 733.3333 200 600 200 c 1
2000 200 m 1
 2000 0 l 1
 2133.3333 0 2266.6667 0 2400 0 c 1
 2400 200 l 1
 2266.6667 200 2133.3333 200 2000 200 c 1
EndSplineSet
Validated: 521
EndChar

StartChar: :
Encoding: 58 58 74
Width: 3200
VWidth: 90
Flags: W
LayerCount: 2
Back
Fore
SplineSet
2600 200 m 1
 2600 0 l 1
 2800 0 l 1
 2800 200 l 1
 2600 200 l 1
600 200 m 1
 600 0 l 1
 733.3333 0 866.6667 0 1000 0 c 1
 1000 200 l 1
 866.6667 200 733.3333 200 600 200 c 1
1800 200 m 1
 1800 0 l 1
 2000 0 l 1
 2000 200 l 1
 1800 200 l 1
0 200 m 1
 0 0 l 1
 133.3333 0 266.6667 0 400 0 c 1
 400 200 l 1
 266.6667 200 133.3333 200 0 200 c 1
2200 200 m 1
 2200 0 l 1
 2400 0 l 1
 2400 200 l 1
 2200 200 l 1
1200 200 m 1
 1200 0 l 1
 1333.3333 0 1466.6667 0 1600 0 c 1
 1600 200 l 1
 1466.6667 200 1333.3333 200 1200 200 c 1
EndSplineSet
Validated: 521
EndChar

StartChar: ;
Encoding: 59 59 75
Width: 3200
VWidth: 90
Flags: W
LayerCount: 2
Back
Fore
SplineSet
2000 200 m 1
 2000 0 l 1
 2133.3333 0 2266.6667 0 2400 0 c 1
 2400 200 l 1
 2266.6667 200 2133.3333 200 2000 200 c 1
2600 200 m 1
 2600 0 l 1
 2800 0 l 1
 2800 200 l 1
 2600 200 l 1
600 200 m 1
 600 0 l 1
 800 0 l 1
 800 200 l 1
 600 200 l 1
1000 200 m 1
 1000 0 l 1
 1133.3333 0 1266.6667 0 1400 0 c 1
 1400 200 l 1
 1266.6667 200 1133.3333 200 1000 200 c 1
0 200 m 1
 0 0 l 1
 133.3333 0 266.6667 0 400 0 c 1
 400 200 l 1
 266.6667 200 133.3333 200 0 200 c 1
1600 200 m 1
 1600 0 l 1
 1800 0 l 1
 1800 200 l 1
 1600 200 l 1
EndSplineSet
Validated: 521
EndChar

StartChar: '
Encoding: 39 39 76
Width: 3400
VWidth: 90
Flags: W
LayerCount: 2
Back
Fore
SplineSet
1600 200 m 1
 1600 0 l 1
 1733.3333 0 1866.6667 0 2000 0 c 1
 2000 200 l 1
 1866.6667 200 1733.3333 200 1600 200 c 1
1000 200 m 1
 1000 0 l 1
 1133.3333 0 1266.6667 0 1400 0 c 1
 1400 200 l 1
 1266.6667 200 1133.3333 200 1000 200 c 1
400 200 m 1
 400 0 l 1
 533.3333 0 666.6667 0 800 0 c 1
 800 200 l 1
 666.6667 200 533.3333 200 400 200 c 1
0 200 m 1
 0 0 l 1
 200 0 l 1
 200 200 l 1
 0 200 l 1
2800 200 m 1
 2800 0 l 1
 3000 0 l 1
 3000 200 l 1
 2800 200 l 1
2200 200 m 1
 2200 0 l 1
 2333.3333 0 2466.6667 0 2600 0 c 1
 2600 200 l 1
 2466.6667 200 2333.3333 200 2200 200 c 1
EndSplineSet
Validated: 521
EndChar

StartChar: bar
Encoding: 124 124 79
Width: 500
VWidth: 0
Flags: HW
LayerCount: 2
Back
Fore
SplineSet
0 400 m 1
 100 400 l 5
 100 200 100 0 100 -200 c 5
 0 -200 l 1
 0 0 0 200 0 400 c 1
EndSplineSet
Validated: 1
EndChar

StartChar: exclam
Encoding: 33 33 80
Width: 3200
VWidth: 90
Flags: HW
LayerCount: 2
Back
Fore
SplineSet
2400 200 m 5
 2400 0 l 5
 2400 0 2400 0 2800 0 c 5
 2800 200 l 5
 2800 200 2800 200 2400 200 c 5
1200 200 m 1
 1200 0 l 1
 1400 0 l 1
 1400 200 l 1
 1200 200 l 1
1600 200 m 1
 1600 0 l 1
 1800 0 l 1
 1800 200 l 1
 1600 200 l 1
600 200 m 1
 600 0 l 1
 600 0 600 0 1000 0 c 1
 1000 200 l 1
 1000 200 1000 200 600 200 c 1
0 200 m 1
 0 0 l 1
 0 0 0 0 400 0 c 1
 400 200 l 1
 400 200 400 200 0 200 c 1
2000 200 m 1
 2000 0 l 1
 2200 0 l 1
 2200 200 l 1
 2000 200 l 1
EndSplineSet
Validated: 9
EndChar

StartChar: quotedbl
Encoding: 34 34 81
Width: 3000
VWidth: 90
Flags: HW
LayerCount: 2
Back
Fore
SplineSet
1000 200 m 1
 1000 0 l 1
 1200 0 l 1
 1200 200 l 1
 1000 200 l 1
2400 200 m 1
 2400 0 l 1
 2600 0 l 1
 2600 200 l 1
 2400 200 l 1
400 200 m 1
 400 0 l 1
 533.3333 0 666.6667 0 800 0 c 1
 800 200 l 1
 666.6667 200 533.3333 200 400 200 c 1
0 200 m 1
 0 0 l 1
 200 0 l 1
 200 200 l 1
 0 200 l 1
1800 200 m 1
 1800 0 l 1
 1933.33300781 0 2066.66699219 0 2200 0 c 1
 2200 200 l 1
 2066.66699219 200 1933.33300781 200 1800 200 c 1
1400 200 m 1
 1400 0 l 1
 1600 0 l 1
 1600 200 l 1
 1400 200 l 1
EndSplineSet
Validated: 9
EndChar

StartChar: backslash
Encoding: 92 92 82
Width: 500
VWidth: 0
Flags: HW
LayerCount: 2
Back
Fore
SplineSet
200 400 m 5
 300 400 l 5
 300 200 300 0 300 -200 c 5
 200 -200 l 5
 200 0 200 200 200 400 c 5
EndSplineSet
Validated: 1
EndChar

StartChar: numbersign
Encoding: 35 35 83
Width: 500
VWidth: 0
Flags: HW
LayerCount: 2
Back
Fore
SplineSet
50 365 m 1
 450 212.375976562 l 1
 450 151.057617188 l 1
 264.534179688 80.416015625 l 1
 450 9.650390625 l 1
 450 -40.7822265625 l 1
 197.62109375 52.4912109375 l 1
 197.668945312 -147.778320312 l 1
 152.456054688 -165 l 1
 152.590820312 37.77734375 l 1
 50 -1.2978515625 l 1
 50 54.931640625 l 1
 120.879882812 80.0859375 l 1
 50 105.241210938 l 1
 50 162.2734375 l 1
 152.612304688 123.120117188 l 1
 152.612304688 271.549804688 l 1
 50 307.966796875 l 1
 50 365 l 1
197.62109375 255.216796875 m 1
 197.62109375 108.216796875 l 1
 396.684570312 181.850585938 l 1
 197.62109375 255.216796875 l 1
EndSplineSet
EndChar

StartChar: dollar
Encoding: 36 36 84
Width: 500
VWidth: 0
Flags: HW
LayerCount: 2
Back
Fore
SplineSet
200 400 m 5
 300 400 l 5
 300 200 300 0 300 -200 c 5
 200 -200 l 5
 200 0 200 200 200 400 c 5
EndSplineSet
Validated: 1
EndChar

StartChar: percent
Encoding: 37 37 85
Width: 500
VWidth: 0
Flags: HW
LayerCount: 2
Back
Fore
SplineSet
200 400 m 5
 300 400 l 5
 300 200 300 0 300 -200 c 5
 200 -200 l 5
 200 0 200 200 200 400 c 5
EndSplineSet
Validated: 1
EndChar

StartChar: ampersand
Encoding: 38 38 86
Width: 500
VWidth: 0
Flags: HW
LayerCount: 2
Back
Fore
SplineSet
179.095703125 267.3984375 m 0
 178.0390625 254.26171875 173.27734375 243.90234375 168.466796875 244.276367188 c 0
 168.44921875 244.278320312 168.420898438 244.280273438 168.403320312 244.282226562 c 0
 163.600585938 244.750976562 160.53125 255.795898438 161.552734375 268.936523438 c 0
 161.556640625 268.984375 161.5625 269.061523438 161.56640625 269.109375 c 0
 162.623046875 282.24609375 167.383789062 292.604492188 172.1953125 292.23046875 c 0
 172.212890625 292.229492188 172.241210938 292.227539062 172.2578125 292.225585938 c 0
 177.061523438 291.756835938 180.130859375 280.711914062 179.109375 267.571289062 c 0
 179.10546875 267.5234375 179.099609375 267.446289062 179.095703125 267.3984375 c 0
256.69921875 400 m 1
 201.365234375 171.470703125 l 1
 450 298.33984375 l 1
 307.19921875 121.41015625 l 1
 375.748046875 99.15625 l 1
 245.92578125 43.962890625 l 1
 288.013671875 0.359375 l 1
 119.109375 0 l 1
 132.27734375 229.080078125 l 1
 50 238.779296875 l 1
 256.69921875 400 l 1
226.703125 355.96484375 m 1
 102.630859375 247.857421875 l 1
 153.591796875 250.73828125 l 1
 131.84765625 17.83984375 l 1
 249.796875 22.794921875 l 1
 221.8984375 47.142578125 l 1
 324.841796875 99.080078125 l 1
 274.13671875 103.59375 l 1
 388.4921875 248.455078125 l 1
 180.26171875 130 l 1
 226.703125 355.96484375 l 1
EndSplineSet
EndChar

StartChar: asterisk
Encoding: 42 42 87
Width: 500
VWidth: 0
Flags: HW
LayerCount: 2
Back
Fore
SplineSet
200 400 m 5
 300 400 l 5
 300 200 300 0 300 -200 c 5
 200 -200 l 5
 200 0 200 200 200 400 c 5
EndSplineSet
Validated: 1
EndChar

StartChar: less
Encoding: 60 60 88
Width: 500
VWidth: 0
Flags: HW
LayerCount: 2
Back
Fore
SplineSet
200 400 m 5
 300 400 l 5
 300 200 300 0 300 -200 c 5
 200 -200 l 5
 200 0 200 200 200 400 c 5
EndSplineSet
Validated: 1
EndChar

StartChar: greater
Encoding: 62 62 89
Width: 500
VWidth: 0
Flags: HW
LayerCount: 2
Back
Fore
SplineSet
200 400 m 5
 300 400 l 5
 300 200 300 0 300 -200 c 5
 200 -200 l 5
 200 0 200 200 200 400 c 5
EndSplineSet
Validated: 1
EndChar

StartChar: bracketleft
Encoding: 91 91 90
Width: 2800
VWidth: 90
Flags: HW
LayerCount: 2
Back
Fore
SplineSet
600 200 m 1
 600 0 l 1
 800 0 l 1
 800 200 l 1
 600 200 l 1
0 200 m 1
 0 0 l 1
 133.3333 0 266.6667 0 400 0 c 1
 400 200 l 1
 266.6667 200 133.3333 200 0 200 c 1
1000 200 m 1
 1000 0 l 1
 1133.3333 0 1266.6667 0 1400 0 c 1
 1400 200 l 1
 1266.6667 200 1133.3333 200 1000 200 c 1
1600 200 m 1
 1600 0 l 1
 1733.3333 0 1866.6667 0 2000 0 c 1
 2000 200 l 1
 1866.6667 200 1733.3333 200 1600 200 c 1
2200 200 m 1
 2200 0 l 1
 2400 0 l 1
 2400 200 l 1
 2200 200 l 1
EndSplineSet
Validated: 9
EndChar

StartChar: bracketright
Encoding: 93 93 91
Width: 3400
VWidth: 90
Flags: HW
LayerCount: 2
Back
Fore
SplineSet
2600 200 m 1
 2600 0 l 1
 2733.3333 0 2866.6667 0 3000 0 c 1
 3000 200 l 1
 2866.6667 200 2733.3333 200 2600 200 c 1
2200 200 m 1
 2200 0 l 1
 2400 0 l 1
 2400 200 l 1
 2200 200 l 1
1600 200 m 1
 1600 0 l 1
 1733.3333 0 1866.6667 0 2000 0 c 1
 2000 200 l 1
 1866.6667 200 1733.3333 200 1600 200 c 1
1000 200 m 1
 1000 0 l 1
 1133.3333 0 1266.6667 0 1400 0 c 1
 1400 200 l 1
 1266.6667 200 1133.3333 200 1000 200 c 1
0 200 m 1
 0 0 l 1
 133.3333 0 266.6667 0 400 0 c 1
 400 200 l 1
 266.6667 200 133.3333 200 0 200 c 1
600 200 m 1
 600 0 l 1
 800 0 l 1
 800 200 l 1
 600 200 l 1
EndSplineSet
Validated: 9
EndChar

StartChar: asciicircum
Encoding: 94 94 92
Width: 500
VWidth: 0
Flags: HW
LayerCount: 2
Back
Fore
SplineSet
200 400 m 5
 300 400 l 5
 300 200 300 0 300 -200 c 5
 200 -200 l 5
 200 0 200 200 200 400 c 5
EndSplineSet
Validated: 1
EndChar

StartChar: grave
Encoding: 96 96 93
Width: 3400
VWidth: 90
Flags: HW
LayerCount: 2
Back
Fore
SplineSet
1600 200 m 1
 1600 0 l 1
 1733.3333 0 1866.6667 0 2000 0 c 1
 2000 200 l 1
 1866.6667 200 1733.3333 200 1600 200 c 1
1000 200 m 1
 1000 0 l 1
 1133.3333 0 1266.6667 0 1400 0 c 1
 1400 200 l 1
 1266.6667 200 1133.3333 200 1000 200 c 1
400 200 m 1
 400 0 l 1
 533.3333 0 666.6667 0 800 0 c 1
 800 200 l 1
 666.6667 200 533.3333 200 400 200 c 1
0 200 m 1
 0 0 l 1
 200 0 l 1
 200 200 l 1
 0 200 l 1
2800 200 m 1
 2800 0 l 1
 3000 0 l 1
 3000 200 l 1
 2800 200 l 1
2200 200 m 1
 2200 0 l 1
 2333.3333 0 2466.6667 0 2600 0 c 1
 2600 200 l 1
 2466.6667 200 2333.3333 200 2200 200 c 1
EndSplineSet
Validated: 9
EndChar

StartChar: braceleft
Encoding: 123 123 94
Width: 2800
VWidth: 90
Flags: HW
LayerCount: 2
Back
Fore
SplineSet
600 200 m 1
 600 0 l 1
 800 0 l 1
 800 200 l 1
 600 200 l 1
0 200 m 1
 0 0 l 1
 133.3333 0 266.6667 0 400 0 c 1
 400 200 l 1
 266.6667 200 133.3333 200 0 200 c 1
1000 200 m 1
 1000 0 l 1
 1133.3333 0 1266.6667 0 1400 0 c 1
 1400 200 l 1
 1266.6667 200 1133.3333 200 1000 200 c 1
1600 200 m 1
 1600 0 l 1
 1733.3333 0 1866.6667 0 2000 0 c 1
 2000 200 l 1
 1866.6667 200 1733.3333 200 1600 200 c 1
2200 200 m 1
 2200 0 l 1
 2400 0 l 1
 2400 200 l 1
 2200 200 l 1
EndSplineSet
Validated: 9
EndChar

StartChar: braceright
Encoding: 125 125 95
Width: 3400
VWidth: 90
Flags: HW
LayerCount: 2
Back
Fore
SplineSet
2600 200 m 1
 2600 0 l 1
 2733.3333 0 2866.6667 0 3000 0 c 1
 3000 200 l 1
 2866.6667 200 2733.3333 200 2600 200 c 1
2200 200 m 1
 2200 0 l 1
 2400 0 l 1
 2400 200 l 1
 2200 200 l 1
1600 200 m 1
 1600 0 l 1
 1733.3333 0 1866.6667 0 2000 0 c 1
 2000 200 l 1
 1866.6667 200 1733.3333 200 1600 200 c 1
1000 200 m 1
 1000 0 l 1
 1133.3333 0 1266.6667 0 1400 0 c 1
 1400 200 l 1
 1266.6667 200 1133.3333 200 1000 200 c 1
0 200 m 1
 0 0 l 1
 133.3333 0 266.6667 0 400 0 c 1
 400 200 l 1
 266.6667 200 133.3333 200 0 200 c 1
600 200 m 1
 600 0 l 1
 800 0 l 1
 800 200 l 1
 600 200 l 1
EndSplineSet
Validated: 9
EndChar

StartChar: asciitilde
Encoding: 126 126 96
Width: 500
VWidth: 0
Flags: HW
LayerCount: 2
Back
Fore
SplineSet
200 400 m 5
 300 400 l 5
 300 200 300 0 300 -200 c 5
 200 -200 l 5
 200 0 200 200 200 400 c 5
EndSplineSet
Validated: 1
EndChar

StartChar: uni02B9
Encoding: 697 697 97
Width: 3400
VWidth: 90
Flags: HW
LayerCount: 2
Back
Fore
SplineSet
1600 200 m 1
 1600 0 l 1
 1733.3333 0 1866.6667 0 2000 0 c 1
 2000 200 l 1
 1866.6667 200 1733.3333 200 1600 200 c 1
1000 200 m 1
 1000 0 l 1
 1133.3333 0 1266.6667 0 1400 0 c 1
 1400 200 l 1
 1266.6667 200 1133.3333 200 1000 200 c 1
400 200 m 1
 400 0 l 1
 533.3333 0 666.6667 0 800 0 c 1
 800 200 l 1
 666.6667 200 533.3333 200 400 200 c 1
0 200 m 1
 0 0 l 1
 200 0 l 1
 200 200 l 1
 0 200 l 1
2800 200 m 1
 2800 0 l 1
 3000 0 l 1
 3000 200 l 1
 2800 200 l 1
2200 200 m 1
 2200 0 l 1
 2333.3333 0 2466.6667 0 2600 0 c 1
 2600 200 l 1
 2466.6667 200 2333.3333 200 2200 200 c 1
EndSplineSet
Validated: 9
EndChar

StartChar: uni02BB
Encoding: 699 699 98
Width: 3400
VWidth: 90
Flags: HW
LayerCount: 2
Back
Fore
SplineSet
1600 200 m 1
 1600 0 l 1
 1733.3333 0 1866.6667 0 2000 0 c 1
 2000 200 l 1
 1866.6667 200 1733.3333 200 1600 200 c 1
1000 200 m 1
 1000 0 l 1
 1133.3333 0 1266.6667 0 1400 0 c 1
 1400 200 l 1
 1266.6667 200 1133.3333 200 1000 200 c 1
400 200 m 1
 400 0 l 1
 533.3333 0 666.6667 0 800 0 c 1
 800 200 l 1
 666.6667 200 533.3333 200 400 200 c 1
0 200 m 1
 0 0 l 1
 200 0 l 1
 200 200 l 1
 0 200 l 1
2800 200 m 1
 2800 0 l 1
 3000 0 l 1
 3000 200 l 1
 2800 200 l 1
2200 200 m 1
 2200 0 l 1
 2333.3333 0 2466.6667 0 2600 0 c 1
 2600 200 l 1
 2466.6667 200 2333.3333 200 2200 200 c 1
EndSplineSet
Validated: 9
EndChar

StartChar: uni02BE
Encoding: 702 702 99
Width: 3400
VWidth: 90
Flags: HW
LayerCount: 2
Back
Fore
SplineSet
1600 200 m 1
 1600 0 l 1
 1733.3333 0 1866.6667 0 2000 0 c 1
 2000 200 l 1
 1866.6667 200 1733.3333 200 1600 200 c 1
1000 200 m 1
 1000 0 l 1
 1133.3333 0 1266.6667 0 1400 0 c 1
 1400 200 l 1
 1266.6667 200 1133.3333 200 1000 200 c 1
400 200 m 1
 400 0 l 1
 533.3333 0 666.6667 0 800 0 c 1
 800 200 l 1
 666.6667 200 533.3333 200 400 200 c 1
0 200 m 1
 0 0 l 1
 200 0 l 1
 200 200 l 1
 0 200 l 1
2800 200 m 1
 2800 0 l 1
 3000 0 l 1
 3000 200 l 1
 2800 200 l 1
2200 200 m 1
 2200 0 l 1
 2333.3333 0 2466.6667 0 2600 0 c 1
 2600 200 l 1
 2466.6667 200 2333.3333 200 2200 200 c 1
EndSplineSet
Validated: 9
EndChar

StartChar: uni02BC
Encoding: 700 700 100
Width: 3400
VWidth: 90
Flags: HW
LayerCount: 2
Back
Fore
SplineSet
1600 200 m 1
 1600 0 l 1
 1733.3333 0 1866.6667 0 2000 0 c 1
 2000 200 l 1
 1866.6667 200 1733.3333 200 1600 200 c 1
1000 200 m 1
 1000 0 l 1
 1133.3333 0 1266.6667 0 1400 0 c 1
 1400 200 l 1
 1266.6667 200 1133.3333 200 1000 200 c 1
400 200 m 1
 400 0 l 1
 533.3333 0 666.6667 0 800 0 c 1
 800 200 l 1
 666.6667 200 533.3333 200 400 200 c 1
0 200 m 1
 0 0 l 1
 200 0 l 1
 200 200 l 1
 0 200 l 1
2800 200 m 1
 2800 0 l 1
 3000 0 l 1
 3000 200 l 1
 2800 200 l 1
2200 200 m 1
 2200 0 l 1
 2333.3333 0 2466.6667 0 2600 0 c 1
 2600 200 l 1
 2466.6667 200 2333.3333 200 2200 200 c 1
EndSplineSet
Validated: 9
EndChar

StartChar: uni02BD
Encoding: 701 701 101
Width: 3400
VWidth: 90
Flags: HW
LayerCount: 2
Back
Fore
SplineSet
1600 200 m 1
 1600 0 l 1
 1733.3333 0 1866.6667 0 2000 0 c 1
 2000 200 l 1
 1866.6667 200 1733.3333 200 1600 200 c 1
1000 200 m 1
 1000 0 l 1
 1133.3333 0 1266.6667 0 1400 0 c 1
 1400 200 l 1
 1266.6667 200 1133.3333 200 1000 200 c 1
400 200 m 1
 400 0 l 1
 533.3333 0 666.6667 0 800 0 c 1
 800 200 l 1
 666.6667 200 533.3333 200 400 200 c 1
0 200 m 1
 0 0 l 1
 200 0 l 1
 200 200 l 1
 0 200 l 1
2800 200 m 1
 2800 0 l 1
 3000 0 l 1
 3000 200 l 1
 2800 200 l 1
2200 200 m 1
 2200 0 l 1
 2333.3333 0 2466.6667 0 2600 0 c 1
 2600 200 l 1
 2466.6667 200 2333.3333 200 2200 200 c 1
EndSplineSet
Validated: 9
EndChar

StartChar: uni02BF
Encoding: 703 703 102
Width: 3400
VWidth: 90
Flags: HW
LayerCount: 2
Back
Fore
SplineSet
1600 200 m 1
 1600 0 l 1
 1733.3333 0 1866.6667 0 2000 0 c 1
 2000 200 l 1
 1866.6667 200 1733.3333 200 1600 200 c 1
1000 200 m 1
 1000 0 l 1
 1133.3333 0 1266.6667 0 1400 0 c 1
 1400 200 l 1
 1266.6667 200 1133.3333 200 1000 200 c 1
400 200 m 1
 400 0 l 1
 533.3333 0 666.6667 0 800 0 c 1
 800 200 l 1
 666.6667 200 533.3333 200 400 200 c 1
0 200 m 1
 0 0 l 1
 200 0 l 1
 200 200 l 1
 0 200 l 1
2800 200 m 1
 2800 0 l 1
 3000 0 l 1
 3000 200 l 1
 2800 200 l 1
2200 200 m 1
 2200 0 l 1
 2333.3333 0 2466.6667 0 2600 0 c 1
 2600 200 l 1
 2466.6667 200 2333.3333 200 2200 200 c 1
EndSplineSet
Validated: 9
EndChar

StartChar: uni02EE
Encoding: 750 750 103
Width: 3000
VWidth: 90
Flags: HW
LayerCount: 2
Back
Fore
SplineSet
1000 200 m 1
 1000 0 l 1
 1200 0 l 1
 1200 200 l 1
 1000 200 l 1
2400 200 m 1
 2400 0 l 1
 2600 0 l 1
 2600 200 l 1
 2400 200 l 1
400 200 m 1
 400 0 l 1
 533.3333 0 666.6667 0 800 0 c 1
 800 200 l 1
 666.6667 200 533.3333 200 400 200 c 1
0 200 m 1
 0 0 l 1
 200 0 l 1
 200 200 l 1
 0 200 l 1
1800 200 m 1
 1800 0 l 1
 1933.33300781 0 2066.66699219 0 2200 0 c 1
 2200 200 l 1
 2066.66699219 200 1933.33300781 200 1800 200 c 1
1400 200 m 1
 1400 0 l 1
 1600 0 l 1
 1600 200 l 1
 1400 200 l 1
EndSplineSet
Validated: 9
EndChar

StartChar: uni02BA
Encoding: 698 698 104
Width: 3000
VWidth: 90
Flags: HW
LayerCount: 2
Back
SplineSet
1000 200 m 1
 1000 0 l 1
 1200 0 l 1
 1200 200 l 1
 1000 200 l 1
2400 200 m 1
 2400 0 l 1
 2600 0 l 1
 2600 200 l 1
 2400 200 l 1
400 200 m 1
 400 0 l 1
 533.3333 0 666.6667 0 800 0 c 1
 800 200 l 1
 666.6667 200 533.3333 200 400 200 c 1
0 200 m 1
 0 0 l 1
 200 0 l 1
 200 200 l 1
 0 200 l 1
1800 200 m 1
 1800 0 l 1
 1933.33300781 0 2066.66699219 0 2200 0 c 1
 2200 200 l 1
 2066.66699219 200 1933.33300781 200 1800 200 c 1
1400 200 m 1
 1400 0 l 1
 1600 0 l 1
 1600 200 l 1
 1400 200 l 1
EndSplineSet
Validated: 9
Fore
EndChar

StartChar: uni00AD
Encoding: 173 173 105
Width: 3000
VWidth: 90
Flags: HW
LayerCount: 2
Back
Fore
SplineSet
1400 200 m 1
 1400 0 l 1
 1600 0 l 1
 1600 200 l 1
 1400 200 l 1
1000 200 m 1
 1000 0 l 1
 1200 0 l 1
 1200 200 l 1
 1000 200 l 1
600 200 m 1
 600 0 l 1
 800 0 l 1
 800 200 l 1
 600 200 l 1
0 200 m 1
 0 0 l 1
 133.3333 0 266.6667 0 400 0 c 1
 400 200 l 1
 266.6667 200 133.3333 200 0 200 c 1
1800 200 m 1
 1800 0 l 1
 2000 0 l 1
 2000 200 l 1
 1800 200 l 1
2200 200 m 1
 2200 0 l 1
 2333.3333 0 2466.6667 0 2600 0 c 1
 2600 200 l 1
 2466.6667 200 2333.3333 200 2200 200 c 1
EndSplineSet
Validated: 9
EndChar

StartChar: brokenbar
Encoding: 166 166 106
Width: 500
VWidth: 0
Flags: HW
LayerCount: 2
Back
Fore
SplineSet
0 400 m 1
 100 400 l 5
 100 200 100 0 100 -200 c 5
 0 -200 l 1
 0 0 0 200 0 400 c 1
EndSplineSet
Validated: 1
EndChar

StartChar: uni02D7
Encoding: 727 727 107
Width: 3000
VWidth: 90
Flags: HW
LayerCount: 2
Back
Fore
SplineSet
1400 200 m 1
 1400 0 l 1
 1600 0 l 1
 1600 200 l 1
 1400 200 l 1
1000 200 m 1
 1000 0 l 1
 1200 0 l 1
 1200 200 l 1
 1000 200 l 1
600 200 m 1
 600 0 l 1
 800 0 l 1
 800 200 l 1
 600 200 l 1
0 200 m 1
 0 0 l 1
 133.3333 0 266.6667 0 400 0 c 1
 400 200 l 1
 266.6667 200 133.3333 200 0 200 c 1
1800 200 m 1
 1800 0 l 1
 2000 0 l 1
 2000 200 l 1
 1800 200 l 1
2200 200 m 1
 2200 0 l 1
 2333.3333 0 2466.6667 0 2600 0 c 1
 2600 200 l 1
 2466.6667 200 2333.3333 200 2200 200 c 1
EndSplineSet
Validated: 9
EndChar

StartChar: hungarumlaut
Encoding: 733 733 108
Width: 3000
VWidth: 90
Flags: HW
LayerCount: 2
Back
Fore
SplineSet
1000 200 m 1
 1000 0 l 1
 1200 0 l 1
 1200 200 l 1
 1000 200 l 1
2400 200 m 1
 2400 0 l 1
 2600 0 l 1
 2600 200 l 1
 2400 200 l 1
400 200 m 1
 400 0 l 1
 533.3333 0 666.6667 0 800 0 c 1
 800 200 l 1
 666.6667 200 533.3333 200 400 200 c 1
0 200 m 1
 0 0 l 1
 200 0 l 1
 200 200 l 1
 0 200 l 1
1800 200 m 1
 1800 0 l 1
 1933.33300781 0 2066.66699219 0 2200 0 c 1
 2200 200 l 1
 2066.66699219 200 1933.33300781 200 1800 200 c 1
1400 200 m 1
 1400 0 l 1
 1600 0 l 1
 1600 200 l 1
 1400 200 l 1
EndSplineSet
Validated: 9
EndChar

StartChar: uni02D6
Encoding: 726 726 109
Width: 2600
VWidth: 90
Flags: HW
LayerCount: 2
Back
Fore
SplineSet
2000 200 m 1
 2000 0 l 1
 2200 0 l 1
 2200 200 l 1
 2000 200 l 1
400 200 m 1
 400 0 l 1
 533.3333 0 666.6667 0 800 0 c 1
 800 200 l 1
 666.6667 200 533.3333 200 400 200 c 1
0 200 m 1
 0 0 l 1
 200 0 l 1
 200 200 l 1
 0 200 l 1
1400 200 m 1
 1400 0 l 1
 1533.3333 0 1666.6667 0 1800 0 c 1
 1800 200 l 1
 1666.6667 200 1533.3333 200 1400 200 c 1
1000 200 m 1
 1000 0 l 1
 1200 0 l 1
 1200 200 l 1
 1000 200 l 1
EndSplineSet
Validated: 9
EndChar

StartChar: quotereversed
Encoding: 8219 8219 110
Width: 3400
VWidth: 90
Flags: HW
LayerCount: 2
Back
Fore
SplineSet
1600 200 m 1
 1600 0 l 1
 1733.3333 0 1866.6667 0 2000 0 c 1
 2000 200 l 1
 1866.6667 200 1733.3333 200 1600 200 c 1
1000 200 m 1
 1000 0 l 1
 1133.3333 0 1266.6667 0 1400 0 c 1
 1400 200 l 1
 1266.6667 200 1133.3333 200 1000 200 c 1
400 200 m 1
 400 0 l 1
 533.3333 0 666.6667 0 800 0 c 1
 800 200 l 1
 666.6667 200 533.3333 200 400 200 c 1
0 200 m 1
 0 0 l 1
 200 0 l 1
 200 200 l 1
 0 200 l 1
2800 200 m 1
 2800 0 l 1
 3000 0 l 1
 3000 200 l 1
 2800 200 l 1
2200 200 m 1
 2200 0 l 1
 2333.3333 0 2466.6667 0 2600 0 c 1
 2600 200 l 1
 2466.6667 200 2333.3333 200 2200 200 c 1
EndSplineSet
Validated: 9
EndChar

StartChar: quotedblleft
Encoding: 8220 8220 111
Width: 3000
VWidth: 90
Flags: HW
LayerCount: 2
Back
Fore
SplineSet
1000 200 m 1
 1000 0 l 1
 1200 0 l 1
 1200 200 l 1
 1000 200 l 1
2400 200 m 1
 2400 0 l 1
 2600 0 l 1
 2600 200 l 1
 2400 200 l 1
400 200 m 1
 400 0 l 1
 533.3333 0 666.6667 0 800 0 c 1
 800 200 l 1
 666.6667 200 533.3333 200 400 200 c 1
0 200 m 1
 0 0 l 1
 200 0 l 1
 200 200 l 1
 0 200 l 1
1800 200 m 1
 1800 0 l 1
 1933.33300781 0 2066.66699219 0 2200 0 c 1
 2200 200 l 1
 2066.66699219 200 1933.33300781 200 1800 200 c 1
1400 200 m 1
 1400 0 l 1
 1600 0 l 1
 1600 200 l 1
 1400 200 l 1
EndSplineSet
Validated: 9
EndChar

StartChar: quoteleft
Encoding: 8216 8216 112
Width: 3400
VWidth: 90
Flags: HW
LayerCount: 2
Back
Fore
SplineSet
1600 200 m 1
 1600 0 l 1
 1733.3333 0 1866.6667 0 2000 0 c 1
 2000 200 l 1
 1866.6667 200 1733.3333 200 1600 200 c 1
1000 200 m 1
 1000 0 l 1
 1133.3333 0 1266.6667 0 1400 0 c 1
 1400 200 l 1
 1266.6667 200 1133.3333 200 1000 200 c 1
400 200 m 1
 400 0 l 1
 533.3333 0 666.6667 0 800 0 c 1
 800 200 l 1
 666.6667 200 533.3333 200 400 200 c 1
0 200 m 1
 0 0 l 1
 200 0 l 1
 200 200 l 1
 0 200 l 1
2800 200 m 1
 2800 0 l 1
 3000 0 l 1
 3000 200 l 1
 2800 200 l 1
2200 200 m 1
 2200 0 l 1
 2333.3333 0 2466.6667 0 2600 0 c 1
 2600 200 l 1
 2466.6667 200 2333.3333 200 2200 200 c 1
EndSplineSet
Validated: 9
EndChar

StartChar: quoteright
Encoding: 8217 8217 113
Width: 3400
VWidth: 90
Flags: HW
LayerCount: 2
Back
Fore
SplineSet
1600 200 m 1
 1600 0 l 1
 1733.3333 0 1866.6667 0 2000 0 c 1
 2000 200 l 1
 1866.6667 200 1733.3333 200 1600 200 c 1
1000 200 m 1
 1000 0 l 1
 1133.3333 0 1266.6667 0 1400 0 c 1
 1400 200 l 1
 1266.6667 200 1133.3333 200 1000 200 c 1
400 200 m 1
 400 0 l 1
 533.3333 0 666.6667 0 800 0 c 1
 800 200 l 1
 666.6667 200 533.3333 200 400 200 c 1
0 200 m 1
 0 0 l 1
 200 0 l 1
 200 200 l 1
 0 200 l 1
2800 200 m 1
 2800 0 l 1
 3000 0 l 1
 3000 200 l 1
 2800 200 l 1
2200 200 m 1
 2200 0 l 1
 2333.3333 0 2466.6667 0 2600 0 c 1
 2600 200 l 1
 2466.6667 200 2333.3333 200 2200 200 c 1
EndSplineSet
Validated: 9
EndChar

StartChar: quotedblright
Encoding: 8221 8221 114
Width: 3000
VWidth: 90
Flags: HW
LayerCount: 2
Back
Fore
SplineSet
1000 200 m 1
 1000 0 l 1
 1200 0 l 1
 1200 200 l 1
 1000 200 l 1
2400 200 m 1
 2400 0 l 1
 2600 0 l 1
 2600 200 l 1
 2400 200 l 1
400 200 m 1
 400 0 l 1
 533.3333 0 666.6667 0 800 0 c 1
 800 200 l 1
 666.6667 200 533.3333 200 400 200 c 1
0 200 m 1
 0 0 l 1
 200 0 l 1
 200 200 l 1
 0 200 l 1
1800 200 m 1
 1800 0 l 1
 1933.33300781 0 2066.66699219 0 2200 0 c 1
 2200 200 l 1
 2066.66699219 200 1933.33300781 200 1800 200 c 1
1400 200 m 1
 1400 0 l 1
 1600 0 l 1
 1600 200 l 1
 1400 200 l 1
EndSplineSet
Validated: 9
EndChar

StartChar: uni201F
Encoding: 8223 8223 115
Width: 3000
VWidth: 90
Flags: HW
LayerCount: 2
Back
Fore
SplineSet
1000 200 m 1
 1000 0 l 1
 1200 0 l 1
 1200 200 l 1
 1000 200 l 1
2400 200 m 1
 2400 0 l 1
 2600 0 l 1
 2600 200 l 1
 2400 200 l 1
400 200 m 1
 400 0 l 1
 533.3333 0 666.6667 0 800 0 c 1
 800 200 l 1
 666.6667 200 533.3333 200 400 200 c 1
0 200 m 1
 0 0 l 1
 200 0 l 1
 200 200 l 1
 0 200 l 1
1800 200 m 1
 1800 0 l 1
 1933.33300781 0 2066.66699219 0 2200 0 c 1
 2200 200 l 1
 2066.66699219 200 1933.33300781 200 1800 200 c 1
1400 200 m 1
 1400 0 l 1
 1600 0 l 1
 1600 200 l 1
 1400 200 l 1
EndSplineSet
Validated: 9
EndChar

StartChar: quotedblbase
Encoding: 8222 8222 116
Width: 3000
VWidth: 90
Flags: HW
LayerCount: 2
Back
Fore
SplineSet
1000 200 m 1
 1000 0 l 1
 1200 0 l 1
 1200 200 l 1
 1000 200 l 1
2400 200 m 1
 2400 0 l 1
 2600 0 l 1
 2600 200 l 1
 2400 200 l 1
400 200 m 1
 400 0 l 1
 533.3333 0 666.6667 0 800 0 c 1
 800 200 l 1
 666.6667 200 533.3333 200 400 200 c 1
0 200 m 1
 0 0 l 1
 200 0 l 1
 200 200 l 1
 0 200 l 1
1800 200 m 1
 1800 0 l 1
 1933.33300781 0 2066.66699219 0 2200 0 c 1
 2200 200 l 1
 2066.66699219 200 1933.33300781 200 1800 200 c 1
1400 200 m 1
 1400 0 l 1
 1600 0 l 1
 1600 200 l 1
 1400 200 l 1
EndSplineSet
Validated: 9
EndChar

StartChar: quotesinglbase
Encoding: 8218 8218 117
Width: 3400
VWidth: 90
Flags: HW
LayerCount: 2
Back
Fore
SplineSet
1600 200 m 1
 1600 0 l 1
 1733.3333 0 1866.6667 0 2000 0 c 1
 2000 200 l 1
 1866.6667 200 1733.3333 200 1600 200 c 1
1000 200 m 1
 1000 0 l 1
 1133.3333 0 1266.6667 0 1400 0 c 1
 1400 200 l 1
 1266.6667 200 1133.3333 200 1000 200 c 1
400 200 m 1
 400 0 l 1
 533.3333 0 666.6667 0 800 0 c 1
 800 200 l 1
 666.6667 200 533.3333 200 400 200 c 1
0 200 m 1
 0 0 l 1
 200 0 l 1
 200 200 l 1
 0 200 l 1
2800 200 m 1
 2800 0 l 1
 3000 0 l 1
 3000 200 l 1
 2800 200 l 1
2200 200 m 1
 2200 0 l 1
 2333.3333 0 2466.6667 0 2600 0 c 1
 2600 200 l 1
 2466.6667 200 2333.3333 200 2200 200 c 1
EndSplineSet
Validated: 9
EndChar

StartChar: figuredash
Encoding: 8210 8210 118
Width: 3000
VWidth: 90
Flags: HW
LayerCount: 2
Back
Fore
SplineSet
1400 200 m 1
 1400 0 l 1
 1600 0 l 1
 1600 200 l 1
 1400 200 l 1
1000 200 m 1
 1000 0 l 1
 1200 0 l 1
 1200 200 l 1
 1000 200 l 1
600 200 m 1
 600 0 l 1
 800 0 l 1
 800 200 l 1
 600 200 l 1
0 200 m 1
 0 0 l 1
 133.3333 0 266.6667 0 400 0 c 1
 400 200 l 1
 266.6667 200 133.3333 200 0 200 c 1
1800 200 m 1
 1800 0 l 1
 2000 0 l 1
 2000 200 l 1
 1800 200 l 1
2200 200 m 1
 2200 0 l 1
 2333.3333 0 2466.6667 0 2600 0 c 1
 2600 200 l 1
 2466.6667 200 2333.3333 200 2200 200 c 1
EndSplineSet
Validated: 9
EndChar

StartChar: endash
Encoding: 8211 8211 119
Width: 3000
VWidth: 90
Flags: HW
LayerCount: 2
Back
Fore
SplineSet
1400 200 m 1
 1400 0 l 1
 1600 0 l 1
 1600 200 l 1
 1400 200 l 1
1000 200 m 1
 1000 0 l 1
 1200 0 l 1
 1200 200 l 1
 1000 200 l 1
600 200 m 1
 600 0 l 1
 800 0 l 1
 800 200 l 1
 600 200 l 1
0 200 m 1
 0 0 l 1
 133.3333 0 266.6667 0 400 0 c 1
 400 200 l 1
 266.6667 200 133.3333 200 0 200 c 1
1800 200 m 1
 1800 0 l 1
 2000 0 l 1
 2000 200 l 1
 1800 200 l 1
2200 200 m 1
 2200 0 l 1
 2333.3333 0 2466.6667 0 2600 0 c 1
 2600 200 l 1
 2466.6667 200 2333.3333 200 2200 200 c 1
EndSplineSet
Validated: 9
EndChar
